<svg xmlns="http://www.w3.org/2000/svg" viewBox="0 0 611 490.5"><rect width="611" height="168.11"/><rect y="215.85" width="245.03" height="25"/><rect y="382.28" width="245.03" height="25"/><rect y="299.06" width="214.5" height="25"/><rect y="465.5" width="214.5" height="25"/><rect x="5" y="224.5" width="10"/><path d="M562.94,216.41H359.31a46,46,0,0,0-31.12,12,39.29,39.29,0,0,0-12.91,28.8V445.6a39.29,39.29,0,0,0,12.91,28.8,46,46,0,0,0,31.12,12H562.94a46,46,0,0,0,31.12-12A39.34,39.34,0,0,0,607,445.6V257.16a39.34,39.34,0,0,0-12.92-28.8,46,46,0,0,0-31.12-12ZM328.37,257.16a27.64,27.64,0,0,1,9.07-20.24,32.33,32.33,0,0,1,21.87-8.39H563a32.35,32.35,0,0,1,21.87,8.39,27.64,27.64,0,0,1,9.07,20.24V392.25l-46.1-37.9a6.91,6.91,0,0,0-9.08.35l-43.46,42.22-42.77-42.19a6.81,6.81,0,0,0-4.74-1.91h0a6.86,6.86,0,0,0-4.74,1.87L333.26,460.91a26.9,26.9,0,0,1-4.89-15.31Zm14.09,212.39,105.2-101.87,108,106.54H359.31a32.5,32.5,0,0,1-16.85-4.67Zm229.7,3.24-67.95-67,39.61-38.47,50.06,41.16V445.6a27.14,27.14,0,0,1-6,16.88,31,31,0,0,1-15.67,10.31Z" style="stroke:#000;stroke-miterlimit:10;stroke-width:7px"/><circle cx="489.51" cy="294.45" r="24.06"/></svg>