<svg xmlns="http://www.w3.org/2000/svg" viewBox="0 0 611.06 490.5"><rect width="611" height="25"/><rect y="93.1" width="238.89" height="25"/><rect y="186.2" width="201.13" height="25"/><rect y="279.3" width="238.89" height="25"/><rect y="372.4" width="201.13" height="25"/><rect y="465.5" width="611" height="25"/><rect x="5" y="224.5" width="10"/><path d="M563.53,106.93H359.89a46,46,0,0,0-31.12,11.95,39.37,39.37,0,0,0-12.91,28.8V336.12a39.37,39.37,0,0,0,12.91,28.8,46,46,0,0,0,31.12,11.94H563.53a46,46,0,0,0,31.12-11.94,39.29,39.29,0,0,0,12.91-28.8V147.68a39.29,39.29,0,0,0-12.91-28.8,46,46,0,0,0-31.12-11.95ZM329,147.68A27.64,27.64,0,0,1,338,127.44a32.27,32.27,0,0,1,21.87-8.39H563.54a32.26,32.26,0,0,1,21.86,8.39,27.65,27.65,0,0,1,9.08,20.24V282.77l-46.1-37.9a6.91,6.91,0,0,0-9.08.35l-43.46,42.22-42.77-42.19a6.83,6.83,0,0,0-4.74-1.91h0a6.86,6.86,0,0,0-4.74,1.87L333.85,351.43A26.93,26.93,0,0,1,329,336.12Zm14.09,212.39L448.25,258.2l108,106.54H359.9a32.5,32.5,0,0,1-16.85-4.67Zm229.7,3.23-67.95-67,39.61-38.47L594.47,299v37.15A27.14,27.14,0,0,1,588.42,353a31,31,0,0,1-15.67,10.3Z" style="stroke:#000;stroke-miterlimit:10;stroke-width:7px"/><circle cx="490.1" cy="184.97" r="24.06"/></svg>